<?xml version="1.0" encoding="utf-8"?>
<!-- Generator: Adobe Illustrator 16.0.0, SVG Export Plug-In . SVG Version: 6.00 Build 0)  -->
<!DOCTYPE svg PUBLIC "-//W3C//DTD SVG 1.1//EN" "http://www.w3.org/Graphics/SVG/1.1/DTD/svg11.dtd">
<svg version="1.1" id="Layer_1" xmlns="http://www.w3.org/2000/svg" xmlns:xlink="http://www.w3.org/1999/xlink" x="0px" y="0px"
	 width="117.667px" height="178.667px" viewBox="0 0 117.667 178.667" enable-background="new 0 0 117.667 178.667"
	 xml:space="preserve">
<g>
	<path d="M111.167,172.667c0,3.313-2.687,6-6,6H51.5l-39-1c-3.313,0-6-2.687-6-6c0,0-1.844-4.982-2.086-46.993S0,54,0,54L6.5,7
		c0-3.313,2.687-6,6-6l62.333-1l33.833,1c3.313,0,6,2.687,6,6l1.512,37.308l1.488,72.025L111.167,172.667z"/>
	<path fill="#FFFFFF" d="M92.585,99.941h2.985l-0.5,26.449h-2.485c-0.693-2.951-1.945-6.05-3.755-8.309
		c-6.896,7.357-15.698,11.533-26.408,11.533c-11.325,0-21.581-1.898-28.765-8.674c-7.185-6.774-11.327-16.728-11.327-27.874
		c0-7.322,2.206-14.211,5.52-20.677c3.312-6.465,8.935-10.764,14.868-13.897c5.931-3.132,11.917-4.699,19.005-4.699
		c5.855,0,11.162,1.139,15.92,3.415c4.757,2.276,8.311,4.8,10.661,7.567c1.656-3.096,2.658-6.301,3.005-9.616h3.066l0.694,28.083
		h-3.51c-1.733-9.98-4.768-16.919-10.103-20.817C76.122,58.529,70.103,56.58,63.4,56.58c-8.205,0-14.201,3.151-19.035,9.452
		c-4.835,6.302-7.752,14.317-7.752,26.045c0,11.11,2.138,20.121,7.417,26.039c5.277,5.919,12.846,8.383,20.704,8.383
		c4.199,0,8.495-0.966,12.886-2.896c4.392-1.931,6.868-5.695,9.43-10.304C89.611,108.692,92.123,104.239,92.585,99.941z"/>
	<path fill="#FFFFFF" d="M19.599,43.548h-2.532l1.886-18.942l83.43-1.5l-0.615,18.942h-2.366c-0.845-4.917-2-8.466-3.468-10.65
		c-1.468-2.183-3.046-2.022-4.732-2.518c-1.688-0.495-3.568-0.743-7.642-0.743l-17.498,0.5l-1,108.171
		c0.5,5.834,0.638,8.669,0.913,10.503c0.275,1.836,1.018,3.192,2.229,4.073s3.485,1.321,6.825,1.321h3.632v2.531l-38.705,1.5v-2.531
		h3.853c5.219,0,3.375,0.928,6.632-1.211c1.229-0.807,2.018-2.064,2.367-3.771c0.348-1.706,1.022-5.678,1.022-11.416l1-108.671
		H37.766c-4.808,0-8.535-0.77-10.187-0.312c-1.651,0.459-3.202,1.344-4.65,3.655C21.479,34.793,20.37,38.815,19.599,43.548z"/>
</g>
</svg>
